<svg width="20" height="26" viewBox="0 0 20 26" fill="none" xmlns="http://www.w3.org/2000/svg">
<path opacity="0.6" d="M17.7778 6.87233H15.5556C15.5556 3.58253 13.0667 0.912537 10 0.912537C6.93333 0.912537 4.44444 3.58253 4.44444 6.87233H2.22222C0.994444 6.87233 0.0111111 7.93914 0.0111111 9.25625L0 23.5598C0 24.8769 0.994444 25.9437 2.22222 25.9437H17.7778C19.0056 25.9437 20 24.8769 20 23.5598V9.25625C20 7.93914 19.0056 6.87233 17.7778 6.87233ZM10 3.29645C11.8389 3.29645 13.3333 4.89964 13.3333 6.87233H6.66667C6.66667 4.89964 8.16111 3.29645 10 3.29645ZM10 15.216C6.93333 15.216 4.44444 12.5461 4.44444 9.25625H6.66667C6.66667 11.2289 8.16111 12.8321 10 12.8321C11.8389 12.8321 13.3333 11.2289 13.3333 9.25625H15.5556C15.5556 12.5461 13.0667 15.216 10 15.216Z" fill="black"/>
</svg>
