<svg width="20" height="20" viewBox="0 0 20 20" fill="none" xmlns="http://www.w3.org/2000/svg">
<path opacity="0.6" d="M10.3201 2.02974L10.0095 2.362L9.69889 2.02879C8.62601 0.898811 7.18059 0.269021 5.67708 0.276432C4.17357 0.283843 2.73361 0.927857 1.67045 2.06837C0.6073 3.20888 0.00696881 4.75362 6.02891e-05 6.36653C-0.00684823 7.97944 0.580225 9.53003 1.63356 10.681L1.94417 11.0142L10.0095 19.6664L18.0748 11.0142L18.3854 10.681C19.4304 9.52824 20.0104 7.98054 19.9999 6.37264C19.9894 4.76474 19.3892 3.22591 18.3293 2.08899C17.2694 0.952067 15.8349 0.308456 14.336 0.297367C12.8372 0.286279 11.3945 0.908605 10.3201 2.02974Z" fill="black"/>
</svg>
