<svg width="20" height="22" viewBox="0 0 20 22" fill="none" xmlns="http://www.w3.org/2000/svg">
<path opacity="0.6" d="M14.2939 13.7702H13.3905L13.0703 13.439C14.191 12.0406 14.8656 10.225 14.8656 8.25002C14.8656 3.84611 11.538 0.276367 7.43282 0.276367C3.32762 0.276367 0 3.84611 0 8.25002C0 12.6539 3.32762 16.2237 7.43282 16.2237C9.27387 16.2237 10.9663 15.4999 12.2699 14.2977L12.5786 14.6412V15.6103L18.2962 21.7316L20 19.9038L14.2939 13.7702ZM7.43282 13.7702C4.58548 13.7702 2.28702 11.3045 2.28702 8.25002C2.28702 5.1955 4.58548 2.7298 7.43282 2.7298C10.2802 2.7298 12.5786 5.1955 12.5786 8.25002C12.5786 11.3045 10.2802 13.7702 7.43282 13.7702Z" fill="black"/>
</svg>
